# generated frustum stripe mesh -- see gen_stripe_mesh.py
v 0.070325 0.000000 0.000000
v 0.044962 0.000000 0.071500
v 0.069724 0.009179 0.000000
v 0.044577 0.005869 0.071500
v 0.067929 0.018202 0.000000
v 0.043430 0.011637 0.071500
v 0.064972 0.026912 0.000000
v 0.041540 0.017206 0.071500
v 0.060904 0.035163 0.000000
v 0.038938 0.022481 0.071500
v 0.055793 0.042811 0.000000
v 0.035671 0.027371 0.071500
v 0.049728 0.049728 0.000000
v 0.031793 0.031793 0.071500
v 0.042811 0.055793 0.000000
v 0.027371 0.035671 0.071500
v 0.035163 0.060904 0.000000
v 0.022481 0.038938 0.071500
v 0.026912 0.064972 0.000000
v 0.017206 0.041540 0.071500
v 0.018202 0.067929 0.000000
v 0.011637 0.043430 0.071500
v 0.009179 0.069724 0.000000
v 0.005869 0.044577 0.071500
v 0.000000 0.070325 0.000000
v 0.000000 0.044962 0.071500
v -0.009179 0.069724 0.000000
v -0.005869 0.044577 0.071500
v -0.018202 0.067929 0.000000
v -0.011637 0.043430 0.071500
v -0.026912 0.064972 0.000000
v -0.017206 0.041540 0.071500
v -0.035163 0.060904 0.000000
v -0.022481 0.038938 0.071500
v -0.042811 0.055793 0.000000
v -0.027371 0.035671 0.071500
v -0.049728 0.049728 0.000000
v -0.031793 0.031793 0.071500
v -0.055793 0.042811 0.000000
v -0.035671 0.027371 0.071500
v -0.060904 0.035163 0.000000
v -0.038938 0.022481 0.071500
v -0.064972 0.026912 0.000000
v -0.041540 0.017206 0.071500
v -0.067929 0.018202 0.000000
v -0.043430 0.011637 0.071500
v -0.069724 0.009179 0.000000
v -0.044577 0.005869 0.071500
v -0.070325 0.000000 0.000000
v -0.044962 0.000000 0.071500
v -0.069724 -0.009179 0.000000
v -0.044577 -0.005869 0.071500
v -0.067929 -0.018202 0.000000
v -0.043430 -0.011637 0.071500
v -0.064972 -0.026912 0.000000
v -0.041540 -0.017206 0.071500
v -0.060904 -0.035163 0.000000
v -0.038938 -0.022481 0.071500
v -0.055793 -0.042811 0.000000
v -0.035671 -0.027371 0.071500
v -0.049728 -0.049728 0.000000
v -0.031793 -0.031793 0.071500
v -0.042811 -0.055793 0.000000
v -0.027371 -0.035671 0.071500
v -0.035163 -0.060904 0.000000
v -0.022481 -0.038938 0.071500
v -0.026912 -0.064972 0.000000
v -0.017206 -0.041540 0.071500
v -0.018202 -0.067929 0.000000
v -0.011637 -0.043430 0.071500
v -0.009179 -0.069724 0.000000
v -0.005869 -0.044577 0.071500
v -0.000000 -0.070325 0.000000
v -0.000000 -0.044962 0.071500
v 0.009179 -0.069724 0.000000
v 0.005869 -0.044577 0.071500
v 0.018202 -0.067929 0.000000
v 0.011637 -0.043430 0.071500
v 0.026912 -0.064972 0.000000
v 0.017206 -0.041540 0.071500
v 0.035163 -0.060904 0.000000
v 0.022481 -0.038938 0.071500
v 0.042811 -0.055793 0.000000
v 0.027371 -0.035671 0.071500
v 0.049728 -0.049728 0.000000
v 0.031793 -0.031793 0.071500
v 0.055793 -0.042811 0.000000
v 0.035671 -0.027371 0.071500
v 0.060904 -0.035163 0.000000
v 0.038938 -0.022481 0.071500
v 0.064972 -0.026912 0.000000
v 0.041540 -0.017206 0.071500
v 0.067929 -0.018202 0.000000
v 0.043430 -0.011637 0.071500
v 0.069724 -0.009179 0.000000
v 0.044577 -0.005869 0.071500
vn 0.942460 0.000000 0.334319
vn 0.934397 0.123016 0.334319
vn 0.910346 0.243927 0.334319
vn 0.870719 0.360664 0.334319
vn 0.816194 0.471230 0.334319
vn 0.747704 0.573733 0.334319
vn 0.666420 0.666420 0.334319
vn 0.573733 0.747704 0.334319
vn 0.471230 0.816194 0.334319
vn 0.360664 0.870719 0.334319
vn 0.243927 0.910346 0.334319
vn 0.123016 0.934397 0.334319
vn 0.000000 0.942460 0.334319
vn -0.123016 0.934397 0.334319
vn -0.243927 0.910346 0.334319
vn -0.360664 0.870719 0.334319
vn -0.471230 0.816194 0.334319
vn -0.573733 0.747704 0.334319
vn -0.666420 0.666420 0.334319
vn -0.747704 0.573733 0.334319
vn -0.816194 0.471230 0.334319
vn -0.870719 0.360664 0.334319
vn -0.910346 0.243927 0.334319
vn -0.934397 0.123016 0.334319
vn -0.942460 0.000000 0.334319
vn -0.934397 -0.123016 0.334319
vn -0.910346 -0.243927 0.334319
vn -0.870719 -0.360664 0.334319
vn -0.816194 -0.471230 0.334319
vn -0.747704 -0.573733 0.334319
vn -0.666420 -0.666420 0.334319
vn -0.573733 -0.747704 0.334319
vn -0.471230 -0.816194 0.334319
vn -0.360664 -0.870719 0.334319
vn -0.243927 -0.910346 0.334319
vn -0.123016 -0.934397 0.334319
vn -0.000000 -0.942460 0.334319
vn 0.123016 -0.934397 0.334319
vn 0.243927 -0.910346 0.334319
vn 0.360664 -0.870719 0.334319
vn 0.471230 -0.816194 0.334319
vn 0.573733 -0.747704 0.334319
vn 0.666420 -0.666420 0.334319
vn 0.747704 -0.573733 0.334319
vn 0.816194 -0.471230 0.334319
vn 0.870719 -0.360664 0.334319
vn 0.910346 -0.243927 0.334319
vn 0.934397 -0.123016 0.334319
f 1//1 3//2 4//2
f 1//1 4//2 2//1
f 3//2 5//3 6//3
f 3//2 6//3 4//2
f 5//3 7//4 8//4
f 5//3 8//4 6//3
f 7//4 9//5 10//5
f 7//4 10//5 8//4
f 9//5 11//6 12//6
f 9//5 12//6 10//5
f 11//6 13//7 14//7
f 11//6 14//7 12//6
f 13//7 15//8 16//8
f 13//7 16//8 14//7
f 15//8 17//9 18//9
f 15//8 18//9 16//8
f 17//9 19//10 20//10
f 17//9 20//10 18//9
f 19//10 21//11 22//11
f 19//10 22//11 20//10
f 21//11 23//12 24//12
f 21//11 24//12 22//11
f 23//12 25//13 26//13
f 23//12 26//13 24//12
f 25//13 27//14 28//14
f 25//13 28//14 26//13
f 27//14 29//15 30//15
f 27//14 30//15 28//14
f 29//15 31//16 32//16
f 29//15 32//16 30//15
f 31//16 33//17 34//17
f 31//16 34//17 32//16
f 33//17 35//18 36//18
f 33//17 36//18 34//17
f 35//18 37//19 38//19
f 35//18 38//19 36//18
f 37//19 39//20 40//20
f 37//19 40//20 38//19
f 39//20 41//21 42//21
f 39//20 42//21 40//20
f 41//21 43//22 44//22
f 41//21 44//22 42//21
f 43//22 45//23 46//23
f 43//22 46//23 44//22
f 45//23 47//24 48//24
f 45//23 48//24 46//23
f 47//24 49//25 50//25
f 47//24 50//25 48//24
f 49//25 51//26 52//26
f 49//25 52//26 50//25
f 51//26 53//27 54//27
f 51//26 54//27 52//26
f 53//27 55//28 56//28
f 53//27 56//28 54//27
f 55//28 57//29 58//29
f 55//28 58//29 56//28
f 57//29 59//30 60//30
f 57//29 60//30 58//29
f 59//30 61//31 62//31
f 59//30 62//31 60//30
f 61//31 63//32 64//32
f 61//31 64//32 62//31
f 63//32 65//33 66//33
f 63//32 66//33 64//32
f 65//33 67//34 68//34
f 65//33 68//34 66//33
f 67//34 69//35 70//35
f 67//34 70//35 68//34
f 69//35 71//36 72//36
f 69//35 72//36 70//35
f 71//36 73//37 74//37
f 71//36 74//37 72//36
f 73//37 75//38 76//38
f 73//37 76//38 74//37
f 75//38 77//39 78//39
f 75//38 78//39 76//38
f 77//39 79//40 80//40
f 77//39 80//40 78//39
f 79//40 81//41 82//41
f 79//40 82//41 80//40
f 81//41 83//42 84//42
f 81//41 84//42 82//41
f 83//42 85//43 86//43
f 83//42 86//43 84//42
f 85//43 87//44 88//44
f 85//43 88//44 86//43
f 87//44 89//45 90//45
f 87//44 90//45 88//44
f 89//45 91//46 92//46
f 89//45 92//46 90//45
f 91//46 93//47 94//47
f 91//46 94//47 92//46
f 93//47 95//48 96//48
f 93//47 96//48 94//47
f 95//48 1//1 2//1
f 95//48 2//1 96//48
